<svg width="72" height="22" viewBox="0 0 72 22" fill="none" xmlns="http://www.w3.org/2000/svg">
<path d="M21 21.078C20.716 21.078 20.4787 20.9813 20.288 20.788C20.0973 20.5947 20.0013 20.3567 20 20.074C19.9987 19.7913 20.0947 19.554 20.288 19.362C20.4813 19.17 20.7187 19.0747 21 19.076H41C41.284 19.076 41.5213 19.172 41.712 19.364C41.904 19.556 42 19.794 42 20.078C42 20.362 41.904 20.5993 41.712 20.79C41.52 20.9807 41.2827 21.076 41 21.076L21 21.078ZM21 11.538C20.716 11.538 20.4787 11.442 20.288 11.25C20.0973 11.058 20.0013 10.82 20 10.536C19.9987 10.252 20.0947 10.0147 20.288 9.824C20.4813 9.63333 20.7187 9.538 21 9.538H51C51.284 9.538 51.5213 9.634 51.712 9.826C51.9027 10.018 51.9987 10.256 52 10.54C52.0013 10.824 51.9053 11.0613 51.712 11.252C51.5187 11.4427 51.2813 11.538 51 11.538H21ZM21 1.998C20.716 1.998 20.4787 1.90267 20.288 1.712C20.096 1.52 20 1.282 20 0.998C20 0.714 20.096 0.476667 20.288 0.286C20.48 0.0953336 20.7173 0 21 0H51C51.284 0 51.5213 0.0960001 51.712 0.288C51.9027 0.48 51.9987 0.716667 52 0.998C52.0013 1.27933 51.9053 1.51667 51.712 1.71C51.5187 1.90333 51.2813 1.99933 51 1.998H21Z" fill="#5DC9DE"/>
</svg>
