<svg width="32" height="22" viewBox="0 0 32 22" fill="none" xmlns="http://www.w3.org/2000/svg">
<path d="M1.00001 21.078C0.716014 21.078 0.47868 20.9813 0.288014 20.788C0.0973471 20.5947 0.00134703 20.3567 1.36986e-05 20.074C-0.00131963 19.7913 0.0946805 19.554 0.288014 19.362C0.481347 19.17 0.71868 19.0747 1.00001 19.076H21C21.284 19.076 21.5213 19.172 21.712 19.364C21.904 19.556 22 19.794 22 20.078C22 20.362 21.904 20.5993 21.712 20.79C21.52 20.9807 21.2827 21.076 21 21.076L1.00001 21.078ZM1.00001 11.538C0.716014 11.538 0.47868 11.442 0.288014 11.25C0.0973471 11.058 0.00134703 10.82 1.36986e-05 10.536C-0.00131963 10.252 0.0946805 10.0147 0.288014 9.824C0.481347 9.63333 0.71868 9.538 1.00001 9.538H31C31.284 9.538 31.5213 9.634 31.712 9.826C31.9027 10.018 31.9987 10.256 32 10.54C32.0013 10.824 31.9053 11.0613 31.712 11.252C31.5187 11.4427 31.2813 11.538 31 11.538H1.00001ZM1.00001 1.998C0.716014 1.998 0.47868 1.90267 0.288014 1.712C0.0960138 1.52 1.36986e-05 1.282 1.36986e-05 0.998C1.36986e-05 0.714 0.0960138 0.476667 0.288014 0.286C0.480014 0.0953336 0.717347 0 1.00001 0H31C31.284 0 31.5213 0.0960001 31.712 0.288C31.9027 0.48 31.9987 0.716667 32 0.998C32.0013 1.27933 31.9053 1.51667 31.712 1.71C31.5187 1.90333 31.2813 1.99933 31 1.998H1.00001Z" fill="#5DC9DE"/>
</svg>
